<?xml version="1.0" encoding="utf-8"?>
<!-- Generator: Adobe Illustrator 27.5.0, SVG Export Plug-In . SVG Version: 6.00 Build 0)  -->
<svg version="1.1" xmlns="http://www.w3.org/2000/svg" xmlns:xlink="http://www.w3.org/1999/xlink" x="0px" y="0px"
	 viewBox="0 0 10 10" style="enable-background:new 0 0 10 10;" xml:space="preserve">
<style type="text/css">
	.st0{fill:#006800;}
	.st1{fill:#FFFFFF;}
	.st2{fill:#B2B2B2;}
	.st3{fill:#EBEBEB;}
	.st4{fill:#FEFEFE;}
</style>
<g id="Background">
	<g>
		<path class="st0" d="M10,8c0,1.1-0.9,2-2,2H2c-1.1,0-2-0.9-2-2V2c0-1.1,0.9-2,2-2h6c1.1,0,2,0.9,2,2V8z"/>
	</g>
</g>
<g id="Layer_1">
	<g id="Layer_1_00000103959885981450942710000009498219064783777725_" shape-rendering="crispEdges">
		<rect x="4" y="1" class="st1" width="1" height="1"/>
		<rect x="5" y="1" class="st1" width="1" height="1"/>
		<rect x="3" y="2" class="st1" width="1" height="1"/>
		<rect x="4" y="2" class="st1" width="1" height="1"/>
		<rect x="5" y="2" class="st2" width="1" height="1"/>
		<rect x="6" y="2" class="st1" width="1" height="1"/>
		<rect x="3" y="3" class="st1" width="1" height="1"/>
		<rect x="4" y="3" class="st1" width="1" height="1"/>
		<rect x="5" y="3" class="st1" width="1" height="1"/>
		<rect x="6" y="3" class="st1" width="1" height="1"/>
		<rect x="3" y="4" class="st3" width="1" height="1"/>
		<rect x="4" y="4" class="st1" width="1" height="1"/>
		<rect x="5" y="4" class="st1" width="1" height="1"/>
		<rect x="6" y="4" class="st2" width="1" height="1"/>
		<rect x="4" y="5" class="st3" width="1" height="1"/>
		<rect x="5" y="5" class="st2" width="1" height="1"/>
		<rect x="3" y="6" class="st3" width="1" height="1"/>
		<rect x="4" y="6" class="st2" width="1" height="1"/>
		<rect x="5" y="6" class="st2" width="1" height="1"/>
		<rect x="6" y="6" class="st2" width="1" height="1"/>
		<rect x="2" y="7" class="st1" width="1" height="1"/>
		<rect x="3" y="7" class="st1" width="1" height="1"/>
		<rect x="4" y="7" class="st4" width="1" height="1"/>
		<rect x="5" y="7" class="st4" width="1" height="1"/>
		<rect x="6" y="7" class="st3" width="1" height="1"/>
		<rect x="7" y="7" class="st3" width="1" height="1"/>
		<rect x="1" y="8" class="st1" width="1" height="1"/>
		<rect x="2" y="8" class="st3" width="1" height="1"/>
		<rect x="3" y="8" class="st3" width="1" height="1"/>
		<rect x="4" y="8" class="st3" width="1" height="1"/>
		<rect x="5" y="8" class="st3" width="1" height="1"/>
		<rect x="6" y="8" class="st3" width="1" height="1"/>
		<rect x="7" y="8" class="st3" width="1" height="1"/>
		<rect x="8" y="8" class="st3" width="1" height="1"/>
	</g>
</g>
</svg>

